<svg xmlns="http://www.w3.org/2000/svg" viewBox="0 0 512 512">
<path
     d="m 258.3,273 -136,136 c -9.4,9.4 -24.6,9.4 -33.9,0 L 65.8,386.4 c -9.4,-9.4 -9.4,-24.6 0,-33.9 l 96.4,-96.4 -96.4,-96.4 c -9.4,-9.4 -9.4,-24.6 0,-33.9 L 88.3,103 c 9.4,-9.4 24.6,-9.4 33.9,0 l 136,136 c 9.5,9.4 9.5,24.6 0.1,34 z m 192,-34 -136,-136 c -9.4,-9.4 -24.6,-9.4 -33.9,0 l -22.6,22.6 c -9.4,9.4 -9.4,24.6 0,33.9 l 96.4,96.4 -96.4,96.4 c -9.4,9.4 -9.4,24.6 0,33.9 l 22.6,22.6 c 9.4,9.4 24.6,9.4 33.9,0 l 136,-136 c 9.4,-9.2 9.4,-24.4 0,-33.8 z"
/>
</svg>
