<svg
    xmlns="http://www.w3.org/2000/svg"
    viewBox="0 0 512 512"
    width="512"
    height="512">

    <path
    d="M 464,422 H 48 C 21.5,422 0,437.11719 0,455.75 v 22.5 C 0,496.88281 21.5,512 48,512 h 416 c 26.5,0 48,-15.11719 48,-33.75 v -22.5 C 512,437.11719 490.5,422 464,422 Z"
    style="fill:#0000e0;fill-opacity:1;" />

    <path
    d="M 464,212.05085 H 48.000003 C 21.5,212.05085 0,226.99153 0,245.40678 v 22.23729 C 0,286.05932 21.5,301 48.000003,301 H 464 c 26.5,0 48,-14.94068 48,-33.35593 v -22.23729 c 0,-18.41525 -21.5,-33.35593 -48,-33.35593 z"
    style="fill:#0000e0;fill-opacity:1" />

    <path
    d="M 464,0 H 48 C 21.5,0 0,15.11719 0,33.749997 V 56.25 C 0,74.882809 21.5,90 48,90 h 416 c 26.5,0 48,-15.117191 48,-33.75 V 33.749997 C 512,15.11719 490.5,0 464,0 Z"
    style="fill:#0000e0;fill-opacity:1;" />
</svg>
