<svg xmlns="http://www.w3.org/2000/svg" viewBox="0 0 512 512">
  <path
     d="M 464,391.05085 H 48 c -26.5,0 -48,14.94068 -48,33.35593 v 22.23729 C 0,465.05932 21.5,480 48,480 h 416 c 26.5,0 48,-14.94068 48,-33.35593 v -22.23729 c 0,-18.41525 -21.5,-33.35593 -48,-33.35593 z"
  />
  <path
     d="M 464,212.05085 H 48.000003 C 21.5,212.05085 0,226.99153 0,245.40678 v 22.23729 C 0,286.05932 21.5,301 48.000003,301 H 464 c 26.5,0 48,-14.94068 48,-33.35593 v -22.23729 c 0,-18.41525 -21.5,-33.35593 -48,-33.35593 z"
  />
  <path
     d="M 464,33.050853 H 48 c -26.5,0 -48,14.94068 -48,33.355927 V 88.64407 C 0,107.05932 21.5,122 48,122 h 416 c 26.5,0 48,-14.94068 48,-33.35593 V 66.40678 C 512,47.991533 490.5,33.050853 464,33.050853 Z"
  />
</svg>
