<?xml version="1.0" encoding="UTF-8" standalone="no"?>
<svg
   xmlns:dc="http://purl.org/dc/elements/1.1/"
   xmlns:cc="http://creativecommons.org/ns#"
   xmlns:rdf="http://www.w3.org/1999/02/22-rdf-syntax-ns#"
   xmlns:svg="http://www.w3.org/2000/svg"
   xmlns="http://www.w3.org/2000/svg"
   xmlns:sodipodi="http://sodipodi.sourceforge.net/DTD/sodipodi-0.dtd"
   xmlns:inkscape="http://www.inkscape.org/namespaces/inkscape"
   width="35.433071"
   height="35.433071"
   version="1.1"
   id="svg2"
   inkscape:version="0.91 r13725"
   sodipodi:docname="dialog-trash2.svg">
  <metadata
     id="metadata12">
    <rdf:RDF>
      <cc:Work
         rdf:about="">
        <dc:format>image/svg+xml</dc:format>
        <dc:type
           rdf:resource="http://purl.org/dc/dcmitype/StillImage" />
        <dc:title></dc:title>
      </cc:Work>
    </rdf:RDF>
  </metadata>
  <defs
     id="defs10" />
  <sodipodi:namedview
     pagecolor="#ffffff"
     bordercolor="#666666"
     borderopacity="1"
     objecttolerance="10"
     gridtolerance="10"
     guidetolerance="10"
     inkscape:pageopacity="0"
     inkscape:pageshadow="2"
     inkscape:window-width="1037"
     inkscape:window-height="643"
     id="namedview8"
     showgrid="false"
     fit-margin-top="0"
     fit-margin-left="0"
     fit-margin-right="0"
     fit-margin-bottom="0"
     inkscape:zoom="10.429825"
     inkscape:cx="18.216535"
     inkscape:cy="17.716535"
     inkscape:window-x="0"
     inkscape:window-y="0"
     inkscape:window-maximized="0"
     inkscape:current-layer="svg2" />
  <path
     style="fill:#24ff1b"
     d="m 2.7256204,10.123734 0,22.778403 c 0,1.316085 1.308298,2.530933 2.7256208,2.530933 l 21.8049668,0 2.725621,0 c 1.417323,0 2.725621,-1.214848 2.725621,-2.530933 l 0,-22.778403 z"
     id="path4"
     inkscape:connector-curvature="0" />
  <path
     style="fill:#069c00"
     d="m 0,5.0618672 0,2.5309337 35.43307,0 0,-2.5309337 c 0,-2.5309336 -2.72562,-2.5309336 -2.72562,-2.5309336 l -8.176863,0 c 0,0 0,-2.5309336 -2.725621,-2.5309336 l -8.176862,0 c -2.725621,0 -2.725621,2.5309336 -2.725621,2.5309336 l -8.1768626,0 c 0,0 -2.7256204,0 -2.7256204,2.5309336 z"
     id="path6"
     inkscape:connector-curvature="0" />
</svg>
