<svg
    xmlns="http://www.w3.org/2000/svg"
    viewBox="0 0 400 400"
    width="400"
    height="400">

    <path
    d="M 200.25088,221.24336 63.773206,391.19025 c -9.433015,11.74633 -24.686402,11.74633 -34.019067,0 L 7.0747617,362.94908 c -9.4330156,-11.74633 -9.4330156,-30.7404 0,-42.36176 L 103.81335,200.12496 7.0747617,79.662605 c -9.4330156,-11.746329 -9.4330156,-30.740393 0,-42.361762 L 29.653788,8.8097468 c 9.433016,-11.7463291 24.686403,-11.7463291 34.019067,0 L 200.15053,178.75664 c 9.53336,11.74633 9.53336,30.74039 0.10035,42.48672 z M 392.92524,178.75664 256.44757,8.8097468 c -9.43302,-11.7463291 -24.68641,-11.7463291 -34.01907,0 L 199.74912,37.050922 c -9.43301,11.746329 -9.43301,30.740393 0,42.361761 l 96.73859,120.462357 -96.73859,120.46235 c -9.43301,11.74633 -9.43301,30.7404 0,42.36177 l 22.67938,28.24117 c 9.43302,11.74633 24.6864,11.74633 34.01907,0 L 392.92524,220.99344 c 9.43301,-11.49641 9.43301,-30.49047 0,-42.2368 z"
    style="fill:#e00000;fill-opacity:1" />
</svg>
